<?xml version="1.0" standalone="no"?>
<!DOCTYPE svg PUBLIC "-//W3C//DTD SVG 1.1//EN" "http://www.w3.org/Graphics/SVG/1.1/DTD/svg11.dtd" >
<svg xmlns="http://www.w3.org/2000/svg" xmlns:xlink="http://www.w3.org/1999/xlink" version="1.1">
<metadata></metadata>
<defs>
<font id="dune_riseregular" horiz-adv-x="1000" >
<font-face units-per-em="1000" ascent="800" descent="-200" />
<missing-glyph horiz-adv-x="400" />
<glyph horiz-adv-x="0" />
<glyph horiz-adv-x="333" />
<glyph unicode=" "  horiz-adv-x="400" />
<glyph unicode="&#x09;" horiz-adv-x="400" />
<glyph unicode="&#xa0;" horiz-adv-x="400" />
<glyph unicode="!" horiz-adv-x="300" d="M184 201h-67v599h67v-599zM150 101q21 0 35.5 -14.5t14.5 -35.5t-14.5 -36t-35.5 -15t-35.5 15t-14.5 36t14.5 35.5t35.5 14.5z" />
<glyph unicode="&#x22;" horiz-adv-x="401" d="M234 800h67v-134h-67v134zM100 666v134h67v-134h-67z" />
<glyph unicode="#" horiz-adv-x="734" d="M500 667v-134h134v-68h-134v-132h134v-67h-134v-134h-67v134h-132v-134h-67v134l-134 -1v67l134 1v132l-134 -1v68l134 1v134h67v-134h132v134h67zM433 333v132h-132v-132h132z" />
<glyph unicode="$" d="M534 867v-67h366v-67h-366v-299h149q90 0 153.5 -63.5t63.5 -153.5t-63.5 -153.5t-153.5 -63.5h-149v-67h-68v67h-366v67h366v299h-149q-90 0 -153.5 63.5t-63.5 153.5t63.5 153.5t153.5 63.5h149v67h68zM466 434v299h-149q-62 0 -106 -44t-44 -106t44 -105.5t106 -43.5 h149zM534 366v-299h149q62 0 106 44t44 106t-44 105.5t-106 43.5h-149z" />
<glyph unicode="&#x26;" horiz-adv-x="800" d="M167 583q0 -40 20 -74.5t54.5 -54.5t75.5 -20h383v-68h-67v-299h67v-67h-383q-90 0 -153.5 63.5t-63.5 153.5q0 57 27.5 105.5t73.5 77.5q-30 19 -53 47t-35.5 63t-12.5 73q0 90 63.5 153.5t153.5 63.5h117v-67h-117q-62 0 -106 -44t-44 -106zM566 67v299h-249 q-62 0 -106 -43.5t-44 -105.5t44 -106t106 -44h249z" />
<glyph unicode="'" horiz-adv-x="267" d="M100 666v134h67v-134h-67z" />
<glyph unicode="(" horiz-adv-x="378" d="M204 867h74q-111 -219 -111 -468q0 -247 111 -466h-74q-104 220 -104 469q0 244 104 465z" />
<glyph unicode=")" horiz-adv-x="378" d="M100 867h74q104 -221 104 -468q0 -246 -104 -466h-74q111 219 111 468q0 247 -111 466z" />
<glyph unicode="*" horiz-adv-x="464" d="M266 533h-67v75l-65 -37l-34 58l65 37l-65 38l34 58l65 -37v75h67v-75l65 37l34 -58l-65 -38l65 -37l-34 -58l-65 37v-75z" />
<glyph unicode="+" horiz-adv-x="734" d="M401 667v-233h233v-68h-233v-233h-67v233h-234v68h234v233h67z" />
<glyph unicode="," horiz-adv-x="267" d="M100 -66v134h67v-134h-67z" />
<glyph unicode="-" horiz-adv-x="467" d="M100 366v68h267v-68h-267z" />
<glyph unicode="." horiz-adv-x="300" d="M100 50q0 21 14.5 35.5t35.5 14.5t35.5 -14.5t14.5 -35.5t-14.5 -35.5t-35.5 -14.5t-35.5 14.5t-14.5 35.5z" />
<glyph unicode="/" horiz-adv-x="580" d="M481 800l-309 -800h-72l309 800h72z" />
<glyph unicode="0" horiz-adv-x="800" d="M633 689q67 -82 67 -189v-200q0 -124 -88 -212t-212 -88t-212 88t-88 212v200q0 124 88 212t212 88q69 0 130 -29.5t103 -81.5zM633 300v200q0 96 -68.5 164.5t-164.5 68.5t-164.5 -68.5t-68.5 -164.5v-200q0 -96 68.5 -164.5t164.5 -68.5t164.5 68.5t68.5 164.5z" />
<glyph unicode="1" horiz-adv-x="389" d="M100 800h190v-800h-67v733h-123v67z" />
<glyph unicode="2" horiz-adv-x="800" d="M317 366q-61 0 -105.5 -43.5t-44.5 -105.5v-150h533v-67h-600v217q0 91 64 154t153 63h166q61 0 105.5 43.5t44.5 105.5q0 64 -44.5 107t-105.5 43h-383v67h383q88 0 152.5 -62t64.5 -155q0 -90 -63.5 -153.5t-153.5 -63.5h-166z" />
<glyph unicode="3" horiz-adv-x="800" d="M599 400q46 -29 73.5 -77.5t27.5 -105.5q0 -90 -63.5 -153.5t-153.5 -63.5h-383v67h383q62 0 106 44t44 106q0 40 -20 74.5t-54.5 54.5t-75.5 20h-117v68h117q62 0 106 43.5t44 105.5q0 41 -20 75.5t-54.5 54.5t-75.5 20h-383v67h383q59 0 109 -29t79 -79t29 -109 q0 -57 -27 -105.5t-74 -77.5z" />
<glyph unicode="4" horiz-adv-x="800" d="M633 800h67v-800h-67v366h-316q-90 0 -153.5 63.5t-63.5 153.5v217h67v-217q0 -62 44 -105.5t106 -43.5h316v366z" />
<glyph unicode="5" horiz-adv-x="800" d="M167 434h316q90 0 153.5 -63.5t63.5 -153.5t-63.5 -153.5t-153.5 -63.5h-383v67h383q62 0 106 44t44 106t-44 105.5t-106 43.5h-383v434h600v-67h-533v-299z" />
<glyph unicode="6" horiz-adv-x="800" d="M483 434q90 0 153.5 -63.5t63.5 -153.5t-63.5 -153.5t-153.5 -63.5h-166q-90 0 -153.5 63.5t-63.5 153.5v366q0 90 63.5 153.5t153.5 63.5h83v-67h-83q-62 0 -106 -44t-44 -106v-149h316zM483 67q62 0 106 44t44 106t-44 105.5t-106 43.5h-316v-149q0 -62 44 -106 t106 -44h166z" />
<glyph unicode="7" horiz-adv-x="800" d="M100 800h600v-67l-518 -733h-82l518 733h-518v67z" />
<glyph unicode="8" horiz-adv-x="800" d="M599 400q46 -29 73.5 -77.5t27.5 -105.5q0 -90 -63.5 -153.5t-153.5 -63.5h-166q-90 0 -153.5 63.5t-63.5 153.5q0 57 27.5 105.5t73.5 77.5q-46 29 -73.5 77.5t-27.5 105.5q0 90 63.5 153.5t153.5 63.5h166q90 0 153.5 -63.5t63.5 -153.5q0 -38 -12.5 -73t-35 -63 t-53.5 -47zM167 583q0 -62 44 -105.5t105 -43.5h168q62 0 105.5 43.5t43.5 105.5t-44 106t-106 44h-166q-41 0 -75.5 -20t-54.5 -54.5t-20 -75.5zM483 67q62 0 106 44t44 106t-43.5 105.5t-105.5 43.5h-168q-40 0 -74.5 -20t-54.5 -54.5t-20 -74.5q0 -62 44 -106t106 -44 h166z" />
<glyph unicode="9" horiz-adv-x="800" d="M317 366q-90 0 -153.5 63.5t-63.5 153.5t63.5 153.5t153.5 63.5h166q90 0 153.5 -63.5t63.5 -153.5v-366q0 -90 -63.5 -153.5t-153.5 -63.5h-83v67h83q62 0 106 44t44 106v149h-316zM317 733q-62 0 -106 -44t-44 -106t44 -105.5t106 -43.5h316v149q0 62 -44 106t-106 44 h-166z" />
<glyph unicode=":" horiz-adv-x="300" d="M200 269q0 -21 -14.5 -35.5t-35.5 -14.5t-35.5 14.5t-14.5 35.5t14.5 35.5t35.5 14.5t35.5 -14.5t14.5 -35.5zM150 100q21 0 35.5 -14.5t14.5 -35.5t-14.5 -35.5t-35.5 -14.5t-35.5 14.5t-14.5 35.5t14.5 35.5t35.5 14.5z" />
<glyph unicode=";" horiz-adv-x="300" d="M117 68h67v-134h-67v134zM150 321q21 0 35.5 -15t14.5 -35.5t-14.5 -35.5t-35.5 -15t-35.5 15t-14.5 35.5t14.5 35.5t35.5 15z" />
<glyph unicode="&#x3c;" horiz-adv-x="820" d="M575 534h146l-476 -267l476 -267h-146l-475 267z" />
<glyph unicode="=" horiz-adv-x="734" d="M100 334h534v-67h-534v67zM100 466v67h534v-67h-534z" />
<glyph unicode="&#x3e;" horiz-adv-x="820" d="M100 534h145l476 -267l-476 -267h-145l475 267z" />
<glyph unicode="?" horiz-adv-x="683" d="M584 583q0 -90 -63.5 -153.5t-153.5 -63.5h-183v-165h-67v233h250q62 0 106 43.5t44 105.5t-44 106t-106 44h-250v67h250q90 0 153.5 -63.5t63.5 -153.5zM150 100q21 0 35.5 -14.5t14.5 -35.5t-14.5 -35.5t-35.5 -14.5t-35.5 14.5t-14.5 35.5t14.5 35.5t35.5 14.5z" />
<glyph unicode="@" d="M100 400q0 166 117 283t283 117h400v-599h-400q-82 0 -140.5 58.5t-58.5 140.5t58.5 140.5t140.5 58.5h199v-330h134v464h-333q-90 0 -167 -44.5t-121.5 -121.5t-44.5 -167t44.5 -167t121.5 -121.5t167 -44.5h400v-67h-400q-166 0 -283 117t-117 283zM631 269v262h-131 q-54 0 -92.5 -38.5t-38.5 -92.5t38.5 -92.5t92.5 -38.5h131z" />
<glyph unicode="A" horiz-adv-x="1099" d="M100 0l450 800l449 -800h-82l-367 655l-368 -655h-82z" />
<glyph unicode="B" d="M799 400q46 -29 73.5 -77.5t27.5 -105.5q0 -90 -63.5 -153.5t-153.5 -63.5h-583v67h583q62 0 106 44t44 106t-44 105.5t-106 43.5h-583v68h17.5h41h61h73h81h81h77.5h151q62 0 106 43.5t44 105.5q0 41 -20 75.5t-54.5 54.5t-75.5 20h-583v67h583q90 0 153.5 -63.5 t63.5 -153.5q0 -38 -12.5 -73t-35 -63t-53.5 -47z" />
<glyph unicode="C" d="M100 400q0 166 117 283t283 117h400v-67h-400q-90 0 -167 -44.5t-121.5 -121.5t-44.5 -167t44.5 -167t121.5 -121.5t167 -44.5h400v-67h-400q-166 0 -283 117t-117 283z" />
<glyph unicode="D" d="M500 800q166 0 283 -117t117 -283t-117 -283t-283 -117h-400v67h400q90 0 167 44.5t121.5 121.5t44.5 167t-44.5 167t-121.5 121.5t-167 44.5h-400v67h400z" />
<glyph unicode="E" d="M500 800h400v-67h-400q-90 0 -167 -44.5t-121.5 -121.5t-44.5 -167t44.5 -167t121.5 -121.5t167 -44.5h400v-67h-400q-166 0 -283 117t-117 283t117 283t283 117zM548 400q0 21 14.5 35.5t35.5 14.5t35.5 -14.5t14.5 -35.5t-14.5 -35.5t-35.5 -14.5t-35.5 14.5 t-14.5 35.5z" />
<glyph unicode="F" d="M100 434h583v-68h-516v-366h-67v434zM900 733h-800v67h800v-67z" />
<glyph unicode="G" d="M100 400q0 166 117 283t283 117h400v-67h-400q-90 0 -167 -44.5t-121.5 -121.5t-44.5 -167t44.5 -167t121.5 -121.5t167 -44.5h333v299h-220v68h287v-434h-400q-166 0 -283 117t-117 283z" />
<glyph unicode="H" d="M833 434v366h67v-800h-67v366h-666v-366h-67v800h67v-366h666z" />
<glyph unicode="I" horiz-adv-x="267" d="M100 0v800h67v-800h-67z" />
<glyph unicode="J" d="M833 800h67v-400q0 -166 -117 -283t-283 -117t-283 117t-117 283h67q0 -90 44.5 -167t121.5 -121.5t167 -44.5t167 44.5t121.5 121.5t44.5 167v333h-67v67h67z" />
<glyph unicode="K" d="M796 800h104l-475 -400l475 -400h-104l-423 356l-206 -173v-183h-67v127v88v585h67v-529z" />
<glyph unicode="L" d="M683 67h157h60v-67h-217h-583v52v15v733h67v-733h516z" />
<glyph unicode="M" horiz-adv-x="1134" d="M784 800q104 0 177 -73.5t73 -176.5v-550h-67v550q0 75 -53.5 129t-129.5 54t-129.5 -54t-53.5 -129v-550h-67v550q0 75 -54 129t-129.5 54t-129.5 -54t-54 -129v-550h-67v550q0 103 73.5 176.5t176.5 73.5q69 0 126.5 -34t90.5 -92q22 38 54.5 66t74.5 44t88 16z" />
<glyph unicode="N" d="M500 800q166 0 283 -117t117 -283v-400h-67v400q0 90 -44.5 167t-121.5 121.5t-167 44.5t-167 -44.5t-121.5 -121.5t-44.5 -167v-400h-67v400q0 166 117 283t283 117z" />
<glyph unicode="O" d="M500 800q166 0 283 -117t117 -283t-117 -283t-283 -117t-283 117t-117 283t117 283t283 117zM500 67q90 0 167 44.5t121.5 121.5t44.5 167t-44.5 167t-121.5 121.5t-167 44.5t-167 -44.5t-121.5 -121.5t-44.5 -167t44.5 -167t121.5 -121.5t167 -44.5z" />
<glyph unicode="P" d="M683 800q90 0 153.5 -63.5t63.5 -153.5t-63.5 -153.5t-153.5 -63.5h-516v-366h-67v434h583q25 0 47.5 7.5t41 21t32.5 32t21.5 41.5t7.5 47q0 41 -20 75.5t-54.5 54.5t-75.5 20h-583v67h583z" />
<glyph unicode="Q" d="M500 800q166 0 283 -117t117 -283v-1q0 -81 -31 -154t-86 -128l117 -117h-95l-74 74q-103 -74 -231 -74q-166 0 -283 117t-117 283t117 283t283 117zM735 165q46 46 72 106.5t26 128.5q0 90 -44.5 167t-121.5 121.5t-167 44.5t-167 -44.5t-121.5 -121.5t-44.5 -167 t44.5 -167t121.5 -121.5t167 -44.5h1q99 0 182 55l-112 112l47 48z" />
<glyph unicode="R" d="M900 583q0 -57 -27.5 -105.5t-73.5 -77.5q46 -29 73.5 -77.5t27.5 -105.5v-217h-67v217q0 62 -44 105.5t-106 43.5h-516v-366h-67v434h583q31 0 58.5 11.5t47.5 31.5t32 48t12 58q0 62 -44 106t-106 44h-583v67h583q90 0 153.5 -63.5t63.5 -153.5z" />
<glyph unicode="S" d="M317 800h583v-67h-583q-62 0 -106 -44t-44 -106t44 -105.5t106 -43.5h366q90 0 153.5 -63.5t63.5 -153.5t-63.5 -153.5t-153.5 -63.5h-583v67h583q62 0 106 44t44 106t-44 105.5t-106 43.5h-366q-90 0 -153.5 63.5t-63.5 153.5t63.5 153.5t153.5 63.5z" />
<glyph unicode="T" d="M100 733v67h800v-67h-366v-733h-68v733h-366z" />
<glyph unicode="U" d="M833 400v400h67v-400q0 -166 -117 -283t-283 -117t-283 117t-117 283v400h67v-400q0 -90 44.5 -167t121.5 -121.5t167 -44.5t167 44.5t121.5 121.5t44.5 167z" />
<glyph unicode="V" horiz-adv-x="1099" d="M550 145l368 655h81l-449 -800l-450 800h82z" />
<glyph unicode="W" horiz-adv-x="1134" d="M967 250v550h67v-550q0 -103 -73 -176.5t-177 -73.5q-68 0 -126 34t-91 92q-33 -58 -90.5 -92t-126.5 -34q-103 0 -176.5 73.5t-73.5 176.5v550h67v-550q0 -75 54 -129t129.5 -54t129.5 54t54 129v550h67v-550q0 -49 24.5 -91.5t66.5 -67t92 -24.5q76 0 129.5 53.5 t53.5 129.5z" />
<glyph unicode="X" d="M805 800h95l-353 -400l353 -400h-95l-305 346l-305 -346h-95l353 400l-353 400h95l305 -346z" />
<glyph unicode="Y" d="M833 766v34h67v-34q0 -77 -28.5 -148t-77.5 -123.5t-117 -86.5t-143 -40v-368h-68v368q-101 8 -185 63t-132.5 143.5t-48.5 191.5v34h67v-34q0 -90 44.5 -166.5t121.5 -121t167 -44.5t167 44.5t121.5 121t44.5 166.5z" />
<glyph unicode="Z" d="M900 800l-651 -733h651v-67h-800l651 733h-651v67h800z" />
<glyph unicode="[" horiz-adv-x="334" d="M100 867h67h67v-67h-67v-800h67v-67h-67h-67v934z" />
<glyph unicode="\" horiz-adv-x="580" d="M100 800h72l309 -800h-72z" />
<glyph unicode="]" horiz-adv-x="334" d="M100 867h67h67v-934h-67h-67v67h67v800h-67v67z" />
<glyph unicode="^" horiz-adv-x="722" d="M397 800l226 -267h-88l-174 205l-173 -205h-88l226 267h71z" />
<glyph unicode="_" horiz-adv-x="734" d="M100 -67v67h534v-67h-534z" />
<glyph unicode="a" horiz-adv-x="1099" d="M100 0l450 800l449 -800h-82l-367 655l-368 -655h-82z" />
<glyph unicode="b" d="M900 583q0 -57 -27.5 -105.5t-73.5 -77.5q46 -29 73.5 -77.5t27.5 -105.5q0 -90 -63.5 -153.5t-153.5 -63.5h-583v434h583q62 0 106 43.5t44 105.5q0 41 -20 75.5t-54.5 54.5t-75.5 20h-583v67h583q90 0 153.5 -63.5t63.5 -153.5zM833 217q0 62 -44 105.5t-106 43.5h-516 v-299h516q41 0 75.5 20t54.5 54.5t20 75.5z" />
<glyph unicode="c" d="M100 400q0 166 117 283t283 117h400v-67h-400q-90 0 -167 -44.5t-121.5 -121.5t-44.5 -167t44.5 -167t121.5 -121.5t167 -44.5h400v-67h-400q-166 0 -283 117t-117 283z" />
<glyph unicode="d" d="M500 800q166 0 283 -117t117 -283t-117 -283t-283 -117h-400v434h67v-367h333q90 0 167 44.5t121.5 121.5t44.5 167t-44.5 167t-121.5 121.5t-167 44.5h-400v67h400z" />
<glyph unicode="e" d="M100 400q0 166 117 283t283 117h400v-67h-400q-85 0 -158 -39.5t-119 -108.5t-54 -151h731v-68h-731q13 -126 107.5 -212.5t223.5 -86.5h400v-67h-400q-166 0 -283 117t-117 283z" />
<glyph unicode="f" d="M683 800h217v-67h-60h-157h-516v-299h516v-68h-516v-366h-67v733v15v52h583z" />
<glyph unicode="g" d="M100 400q0 166 117 283t283 117h400v-67h-400q-90 0 -167 -44.5t-121.5 -121.5t-44.5 -167t44.5 -167t121.5 -121.5t167 -44.5h333v299h-220v68h287v-434h-400q-166 0 -283 117t-117 283z" />
<glyph unicode="h" d="M833 434v366h67v-800h-67v366h-666v-366h-67v800h67v-366h666z" />
<glyph unicode="i" horiz-adv-x="401" d="M301 733h-67v-666h67v-67h-201v67h67v666h-67v67h201v-67z" />
<glyph unicode="j" d="M833 800h67v-400q0 -166 -117 -283t-283 -117t-283 117t-117 283h67q0 -90 44.5 -167t121.5 -121.5t167 -44.5t167 44.5t121.5 121.5t44.5 167v333h-67v67h67z" />
<glyph unicode="k" d="M796 800h104l-475 -400l475 -400h-104l-424 356l-205 -173v-183h-67v127v88v585h67v-529z" />
<glyph unicode="l" d="M683 67h157h60v-67h-217h-583v52v15v733h67v-733h516z" />
<glyph unicode="m" horiz-adv-x="1134" d="M784 800q103 0 176.5 -73.5t73.5 -176.5v-550h-67v550q0 75 -53.5 129t-129.5 54t-129.5 -54t-53.5 -129v-550h-68v550q0 75 -53.5 129t-129.5 54t-129.5 -54t-53.5 -129v-550h-67v550q0 103 73.5 176.5t176.5 73.5q69 0 126.5 -34t90.5 -92q33 58 90.5 92t126.5 34z" />
<glyph unicode="n" d="M500 800q166 0 283 -117t117 -283v-400h-67v400q0 90 -44.5 167t-121.5 121.5t-167 44.5t-167 -44.5t-121.5 -121.5t-44.5 -167v-400h-67v400q0 166 117 283t283 117z" />
<glyph unicode="o" d="M500 800q166 0 283 -117t117 -283t-117 -283t-283 -117t-283 117t-117 283t117 283t283 117zM500 67q90 0 167 44.5t121.5 121.5t44.5 167t-44.5 167t-121.5 121.5t-167 44.5t-167 -44.5t-121.5 -121.5t-44.5 -167t44.5 -167t121.5 -121.5t167 -44.5zM550 400 q0 -21 -14.5 -35.5t-35.5 -14.5t-35.5 14.5t-14.5 35.5t14.5 35.5t35.5 14.5t35.5 -14.5t14.5 -35.5z" />
<glyph unicode="p" d="M683 800q90 0 153.5 -63.5t63.5 -153.5t-63.5 -153.5t-153.5 -63.5h-516v-366h-67v800h583zM167 733v-299h516q24 0 58.5 19t63 55.5t28.5 74.5q0 41 -20 75.5t-54.5 54.5t-75.5 20h-516z" />
<glyph unicode="q" d="M500 800q109 0 201 -53.5t145.5 -145.5t53.5 -201v-1q0 -81 -31 -154t-86 -128l117 -117h-95l-74 74q-103 -74 -231 -74q-109 0 -201 53.5t-145.5 145.5t-53.5 201t53.5 201t145.5 145.5t201 53.5zM735 165q31 30 52.5 67t33.5 80t12 88q0 90 -44.5 167t-121.5 121.5 t-167 44.5t-167 -44.5t-121.5 -121.5t-44.5 -167t44.5 -167t121.5 -121.5t167 -44.5h1q99 0 182 55l-112 112l47 48z" />
<glyph unicode="r" d="M900 583q0 -57 -27.5 -105.5t-73.5 -77.5q46 -29 73.5 -77.5t27.5 -105.5v-217h-67v217q0 62 -44 105.5t-106 43.5h-516v-366h-67v800h583q90 0 153.5 -63.5t63.5 -153.5zM167 733v-299h516q31 0 58.5 11.5t47.5 31.5t32 48t12 58q0 62 -44 106t-106 44h-516z" />
<glyph unicode="s" d="M317 800h583v-67h-583q-62 0 -106 -44t-44 -106t44 -105.5t106 -43.5h366q90 0 153.5 -63.5t63.5 -153.5t-63.5 -153.5t-153.5 -63.5h-583v67h583q62 0 106 44t44 106t-44 105.5t-106 43.5h-366q-90 0 -153.5 63.5t-63.5 153.5t63.5 153.5t153.5 63.5z" />
<glyph unicode="t" d="M100 733v67h800v-67h-366v-733h-68v733h-366z" />
<glyph unicode="u" d="M833 400v400h67v-400q0 -166 -117 -283t-283 -117t-283 117t-117 283v400h67v-400q0 -90 44.5 -167t121.5 -121.5t167 -44.5t167 44.5t121.5 121.5t44.5 167z" />
<glyph unicode="v" horiz-adv-x="1099" d="M550 145l367 655h82l-449 -800l-450 800h82z" />
<glyph unicode="w" horiz-adv-x="1134" d="M967 250v550h67v-550q0 -103 -73.5 -176.5t-176.5 -73.5q-69 0 -126.5 34t-90.5 92q-33 -58 -90.5 -92t-126.5 -34q-103 0 -176.5 73.5t-73.5 176.5v550h67v-550q0 -76 53.5 -129.5t129.5 -53.5t129.5 54t53.5 129v550h68v-550q0 -49 24.5 -91.5t66.5 -67t91.5 -24.5 t92 24.5t67 67t24.5 91.5z" />
<glyph unicode="x" d="M805 800h95l-353 -400l353 -400h-95l-305 346l-305 -346h-95l353 400l-353 400h95l305 -346z" />
<glyph unicode="y" d="M833 766v34h67v-34q0 -77 -28.5 -148t-77.5 -123.5t-117 -86.5t-143 -40v-368h-68v368q-101 8 -185 63t-132.5 143.5t-48.5 191.5v34h67v-34q0 -90 44.5 -166.5t121.5 -121t167 -44.5t167 44.5t121.5 121t44.5 166.5z" />
<glyph unicode="z" d="M900 800l-651 -733h651v-67h-800l651 733h-651v67h800z" />
<glyph unicode="{" horiz-adv-x="367" d="M134 800q0 28 19.5 47.5t47.5 19.5h67v-67h-30q-16 0 -26.5 -11t-10.5 -26v-326q0 -15 -11 -26t-26 -11q15 0 26 -11t11 -26v-326q0 -15 10.5 -26t26.5 -11h30v-67h-67q-28 0 -47.5 19.5t-19.5 47.5v366h-34v67h34v367z" />
<glyph unicode="|" horiz-adv-x="267" d="M100 0v800h67v-800h-67z" />
<glyph unicode="}" horiz-adv-x="367" d="M234 433h34v-67h-34v-366q0 -28 -19.5 -47.5t-47.5 -19.5h-67v67h30q15 0 26 11t11 26v326q0 15 11 26t26 11q-15 0 -26 11t-11 26v326q0 15 -11 26t-26 11h-30v67h67q28 0 47.5 -19.5t19.5 -47.5v-367z" />
<glyph unicode="&#xa2;" d="M567 867v-67h333v-67h-333v-666h333v-67h-16h-317v-67h-67v67q-109 0 -201 53.5t-145.5 145.5t-53.5 201t53.5 201t145.5 145.5t201 53.5v67h67zM500 733q-90 0 -167 -44.5t-121.5 -121.5t-44.5 -167q0 -68 26.5 -129.5t71 -106t106 -71t129.5 -26.5v666z" />
<glyph unicode="&#xa3;" horiz-adv-x="807" d="M234 366v-299h473v-67h-607v67h67v299h-67v68h67v149q0 90 63.5 153.5t153.5 63.5h150v-67h-150q-62 0 -106 -44t-44 -106v-149h233v-68h-233z" />
<glyph unicode="&#xa5;" d="M900 800l-337 -379h204v-67h-233v-67h233v-68h-233v-219h-68v219h-233v68h233v67h-233v67h204l-337 379h90l276 -312l34 -37l34 37l276 312h90z" />
<glyph unicode="&#xad;" horiz-adv-x="467" d="M100 366v68h267v-68h-267z" />
<glyph unicode="&#x2000;" horiz-adv-x="433" />
<glyph unicode="&#x2001;" horiz-adv-x="867" />
<glyph unicode="&#x2002;" horiz-adv-x="433" />
<glyph unicode="&#x2003;" horiz-adv-x="867" />
<glyph unicode="&#x2004;" horiz-adv-x="289" />
<glyph unicode="&#x2005;" horiz-adv-x="216" />
<glyph unicode="&#x2006;" horiz-adv-x="144" />
<glyph unicode="&#x2007;" horiz-adv-x="144" />
<glyph unicode="&#x2008;" horiz-adv-x="108" />
<glyph unicode="&#x2009;" horiz-adv-x="173" />
<glyph unicode="&#x200a;" horiz-adv-x="48" />
<glyph unicode="&#x2010;" horiz-adv-x="467" d="M100 366v68h267v-68h-267z" />
<glyph unicode="&#x2011;" horiz-adv-x="467" d="M100 366v68h267v-68h-267z" />
<glyph unicode="&#x2012;" horiz-adv-x="467" d="M100 366v68h267v-68h-267z" />
<glyph unicode="&#x2013;" horiz-adv-x="700" d="M100 366v68h500v-68h-500z" />
<glyph unicode="&#x2014;" horiz-adv-x="1200" d="M100 366v68h1000v-68h-1000z" />
<glyph unicode="&#x2019;" horiz-adv-x="267" d="M100 666v134h67v-134h-67z" />
<glyph unicode="&#x202f;" horiz-adv-x="173" />
<glyph unicode="&#x205f;" horiz-adv-x="216" />
<glyph unicode="&#x20ac;" horiz-adv-x="1067" d="M250 299q31 -98 117.5 -165t199.5 -67h400v-67h-400q-138 0 -245.5 84.5t-141.5 214.5h-80v67h69q-2 17 -2 34t2 34h-69v67h80q32 125 139 212t248 87h400v-67h-400q-113 0 -199.5 -67t-117.5 -165h384v-67h-398q-2 -17 -2 -34t2 -34h398v-67h-384z" />
<glyph unicode="&#x25fc;" horiz-adv-x="800" d="M0 800h800v-800h-800v800z" />
</font>
</defs>
</svg>
