<svg width="240" height="123" viewBox="0 0 240 123" fill="none" xmlns="http://www.w3.org/2000/svg">
<path d="M235.492 1.52542C242.543 2.40685 231.594 16.6008 230.03 18.0979C215.796 31.727 195.405 39.6653 176.051 42.5523M176.051 42.5523C174.514 42.7816 172.983 42.9791 171.462 43.145C161.132 44.2719 135.773 50.6096 135.492 35.4237C135.226 21.0632 140.026 13.2975 155.831 15.2731C167.023 16.6722 172.996 25.4076 175.228 35.6121C175.779 38.1297 176.043 40.4332 176.051 42.5523ZM176.051 42.5523C176.104 56.8244 164.519 62.7345 150.369 69.4162C118.925 84.265 87.5632 91.3559 52.9118 91.3559C48.8737 91.3559 29.3561 94.3387 27.0172 89.661M36.3104 63.5218C42.8299 67.2817 14.8467 78.8738 11.9797 80.041C8.40019 81.4983 6.77142 85.4511 3.38177 87.3515C-2.58649 90.6976 8.99826 95.4225 11.2904 96.7123C25.5136 104.716 36.3547 109.011 46.9018 121.322" stroke="#489250" stroke-width="3" stroke-linecap="round"/>
</svg>
