<?xml version="1.0" encoding="UTF-8"?>
<svg id="Layer_1" data-name="Layer 1" xmlns="http://www.w3.org/2000/svg" viewBox="0 0 311.17 322.15">
  <defs>
    <style>
      .cls-1 {
        opacity: .72;
      }

      .cls-2 {
        stroke-width: 9.97px;
      }

      .cls-2, .cls-3, .cls-4 {
        fill: none;
        stroke: #fff;
      }

      .cls-3 {
        stroke-linecap: round;
        stroke-miterlimit: 10;
      }

      .cls-3, .cls-4 {
        stroke-width: 2px;
      }
    </style>
  </defs>
  <polyline class="cls-2" points="124.62 131.78 173.06 172.95 221.3 131.44 221.3 222.21"/>
  <g class="cls-1">
    <g>
      <path class="cls-3" d="M54.94,45.57h4.4l3.07,9.32-16.57-1.11m14.08-12.21l13.83-.14m-7.3-4.68l7.3,4.68"/>
      <line class="cls-3" x1="62.91" y1="54.89" x2="73.75" y2="41.43"/>
    </g>
    <g>
      <path class="cls-3" d="M57.47,234.76l-14.28,19.65m-24.54-2.16l24.54,2.16m-15.71-1.38l-10.12-21.35m0,0l23.01,16.8m16.71-13.72l-16.71,13.72m.04-.19l-10.64-25.72m0,0l27.71,12.2m-6.47-2.85l8.26-12.66m-1.79-17.11l1.79,17.11m0,0l-25.4,.31m-21.7,15.94l21.7-15.94m0,0l-18.99-.62m-2.71,16.56l2.71-16.56m-7.15,6.07l16.03-13.61m0,0l10.12,8.16m9.85-21.87l-9.85,21.87m18.38-19.26l-5.2-7.62m-13.82,0h13.82m-3.34,5.01l13.77,4.45m.52-18.91l-.52,18.91m-33.73,9.27l19.61-13.57m-14.87-7.26l15.22,7.11M5.09,215.5l18.64-4.1m0,0l.89-18.54m-19.53,22.63l19.53-22.63m0,0l24.95-14.84m-25.84-1.84l25.84,1.84m-41.87,9.28l16.92,5.56m-.89-16.68l.89,16.68m24.95-20.76l8.42,11.12m-22.2-13.72l22.2,13.72m14.81-35.59l-2.24,17.61m0,0l-20.99,6.86m0-5.93v5.93m16.83-17.79l4.16,10.94m32.79-22.99h-16.24m-14.31,5.38l14.31-5.38m30.46-37.23l-3.16,4.61m-9.24,.1l9.24-.1m-20.1-9.32l23.26,4.71m0,0l12.15-22.68m-6.08-9.53l6.08,9.53m0,0l-21.59,7.68m-11.8,0h11.8m9.45,15l-9.45-15m-2.96-11.53l2.96,11.53m13.83-52.09l.87,15.99m-.82,15.17l.82-15.17m-5.25,0h5.25m.82,18.88l-1.64-3.71m-13.11,.47l13.11-.47m1.64,3.71l-18.48,5.69m0,0l-6.83-3.84m0,0l-2.01,15.37m-2.02,10.29l2.02-10.29m-8.35-7.62l8.35,7.62m-2.53,41.6l11.65-11.33m-20.25-6.03l19.97,6.3m.28-.27l-.28-10.56m-19.97,4.53l19.97-4.53m0,0l-10.86-9.42m-11.67,5.38l11.67-5.38m-15.1,16.9l5.99-2.96m0,0l3.85,12.6m14.32,15.39l-14.32-15.39m0,0l-18.47,15.39m-5.33,3.52l7.56,1.85m-2.24-5.38l2.24,5.38m-7.56-1.85l1.16,8.53m0,0l-16.83,11.86m-13.78-1l13.78,1m0,0l-10.66-8.07m0,0l26.33-12.32m-9.56-15.5l14.89,11.98m8.64-25.03l-8.64,25.03m-5.33,3.52l-9.56-15.5m-8.64-2.06l8.64,2.06m0,0l3.57-13.06m19.95,0h-19.95m-7.15-.73l7.15,.73m7.15-10.93l-7.15,10.93m24.98-16.9l-5.03,16.9m0,0l-12.8-10.93m0,0l17.83-5.98M175.02,19.28l10.99-2.25m0-6.61v6.61m-23.52,3.85l12.53-1.6m-10.99-8.86l10.99,8.86M187.73,1.03l-1.72,9.39m0,0h-21.98m2.89-8.74l-2.89,8.74m-4.15-9.42l4.15,9.42m-1.54,10.46l-10.02,14.38m0,0l-19.47-4.05m-1.35-4l1.35,4M23.73,160.99l12.05,8.53m0-6.67v6.67m-12.05,6.67v-15.2m12.05-13.35l-12.05,13.35M1,183.73l6.71,3.58m16.03-11.12l-16.03,11.12m0,0l8.88-30.4m6.74,19.56l-6.74-19.56m-15.29-4.14l15.29,4.14m-6.03-4.85l25.23-4.42m0,0v15.2m0,0l11.25-17.05m0,0l-6.68-11.12m-4.73,13.15l4.73-12.85m-13.64,4.15l13.64-4.45m6.68,4.08l-6.68-4.08m-23.77-5.1l23.77,5.1m6.68-11.12v15.2m-30.45-9.17l16.07-10.1M101.43,63.56l-3.1,11.11m10.56-5.09l-10.56,5.09m-4.03-3.69l4.03,3.69m19.23-20.73l-8.68,15.64m-7.46-6.02l7.46,6.02m8.68-15.64l-5.21-5.38m-6.94-4.65l6.94,4.65m-16.94-.69l22.15,6.06m-21.4,7.77l5.27,1.85m-6.01-15.68l6.01,15.68m-15.29,22.17l-1.91,14.6m-24.59,1.16l24.59-1.16m1.96-14.7l8.11-14.65m1.87-9.27l-1.87,9.27m-7.4-29.24l18.52,2.19m-20.96,8.3l20.96-8.3m-11.12,27.06l-25.32,3.69m-6.76-8.28l6.76,8.28m15.27-22.3l11.91,9.34m-22.78,5.57l22.78-5.57m-25.6,26.3l15.58-2.28m0,0l-17.16-11.06m4.4-7.39l-4.4,7.39m1.58,13.34l-10.92,13.48m-7.54-5.38l14.3,10.19m0,0l-14.3,10.19m0-20.39v20.39m-5.06,7.04l5.06-7.04m0,0l-19.44,2.97m0,0l14.38,4.08m-8.13-23.72l13.19-3.71m0-10.38v10.38M3.86,137.23l6.56,14.53m16.3-12.65l-20.26-12.47m-2.59,10.59l6.98-7.38m15.88,9.27l-16.04,12.85m-9.38,.8l9.26-.71m16.16-12.95L7.99,121.46m0,0l24.67-2m19.44-33.74l18.46,2.28m0,0l-8.33-21.55m-20.26,1.65l20.26-1.65m-25.45,22.24l15.32-2.96m-10.13-17.62l10.13,17.62m-15.32,2.96l-7.33,11.3m3.2,19.47l-3.2-19.47m-22.32,14.28l31.77-14.46m-6.25,19.65l6.25-19.65m-22.74,.42l22.74-.42m-18.31,.21l12.7-15.85m-14.24,4.37l13.89-4.37m-4.42-6.19l8.25,10.71m4.24-11.49l-4.24,11.49m47.42-42.47l.04,6.14m-10.8,14.82l10.8-14.82m0,0l-22.02,3.15m11.22,11.67l-13.55-10.22m2.33,9.49l-2.33-9.49m-17.93,11.14l20.26-12.59m-29.69,16.62l8.48,5.07m1.89-18.2l-1.89,18.2M144.09,20.88h18.4m0,0l1.54-10.46m0,0l-19.75-8.2m0,0l-.19,18.67m8.37,14.38l-14.27-23.91m0,0l-6.56,15.87m-1.93-13.41l1.93,13.41m-19.28,21.35l19.28-21.35m0,0h-23.52m-.77-4.51l.82,4.77m4.19,21.09l-4.24-21.35m-2.7,16.7l-10.67-25.4m0,0l13.37,8.7m.77-15.87l-1.54,11.36m20.44-8.16l10.41-3.2m6.09-9.13l-6.09,9.13m-20.63-2.46l12.15,4.91m-1.93,.74l-20.44,8.16m0,0l-9.99-5.49m-2.61,1.3l-.89,11.6m-9.64,16.1l9.64-16.1m0,0l-9.56-5.81m0,0l-.08,21.91m0,0l-10.46-4.79"/>
      <path class="cls-4" d="M265.41,57.88s65.06,50.3,31.75,153.82c0,0-34.13,99.64-157.41,86.05"/>
      <path class="cls-4" d="M265.14,57.88s71.03,54.91,34.66,167.94c0,0-37.26,108.78-171.86,93.95"/>
      <path class="cls-4" d="M253.97,51.43s71.03,54.91,34.66,167.94c0,0-37.26,108.78-171.86,93.95"/>
      <path class="cls-4" d="M261.68,42.96s71.03,54.91,34.66,167.94c0,0-37.26,108.78-171.86,93.95"/>
    </g>
  </g>
</svg>